<?xml version="1.0" encoding="utf-8"?>
<!-- Generator: Adobe Illustrator 15.0.0, SVG Export Plug-In  -->
<!DOCTYPE svg PUBLIC "-//W3C//DTD SVG 1.1//EN" "http://www.w3.org/Graphics/SVG/1.1/DTD/svg11.dtd" [
	<!ENTITY ns_flows "http://ns.adobe.com/Flows/1.0/">
]>
<svg version="1.1"
	 xmlns="http://www.w3.org/2000/svg" xmlns:xlink="http://www.w3.org/1999/xlink" xmlns:a="http://ns.adobe.com/AdobeSVGViewerExtensions/3.0/"
	 x="0px" y="0px" width="320px" height="45px" viewBox="3.897 66.666 320 45"
	 overflow="visible" enable-background="new 3.897 66.666 320 45" xml:space="preserve">
<defs>
</defs>
<rect x="5.605" y="66.666" fill="#FFFFFF" width="312.083" height="42.25"/>
<polygon fill="#9CB7D4" points="8.157,61.333 0.252,61.333 0.252,120 2.301,120 2.301,129.999 324.044,129.999 324.044,109.999 
	8.157,109.999 "/>
<polygon fill="#9CB7D4" points="7.905,0 0,0 0,58.667 2.049,58.667 2.049,68.666 323.792,68.666 323.792,48.666 7.905,48.666 "/>
<path fill="#9CB7D4" d="M68.196,90.195h-3.908v3.929h3.654c0.739,0,1.328-0.145,1.77-0.429c0.445-0.286,0.666-0.814,0.666-1.579
	C70.378,90.836,69.651,90.195,68.196,90.195 M108.106,79.939c-2.393,0-4.277,0.893-5.654,2.678
	c-1.377,1.785-2.066,3.944-2.066,6.477c0,2.536,0.682,4.696,2.049,6.481c1.363,1.785,3.254,2.677,5.672,2.677
	c2.389,0,4.273-0.892,5.65-2.677c1.377-1.785,2.066-3.945,2.066-6.481c0-2.533-0.682-4.692-2.047-6.477
	C112.411,80.832,110.522,79.939,108.106,79.939 M182.159,82.323c-1.326-1.589-3.104-2.384-5.336-2.384
	c-2.131,0-3.891,0.82-5.281,2.462c-1.391,1.641-2.084,3.508-2.084,5.601h14.69C184.148,85.804,183.484,83.913,182.159,82.323
	 M69.198,85.879c0.352-0.256,0.53-0.712,0.53-1.37c0-0.513-0.184-0.884-0.542-1.113c-0.363-0.228-0.894-0.345-1.597-0.345h-3.301
	v3.216h3.301C68.313,86.267,68.849,86.137,69.198,85.879 M305.347,79.914c-4.447,0-7.061,4.134-7.373,8.115h14.709
	C312.603,83.816,309.953,79.914,305.347,79.914 M47.681,82.832c-1.041,0-1.975,0.433-2.799,1.298
	c-0.821,0.865-1.233,2.337-1.233,4.418c0,2.063,0.416,3.532,1.248,4.407c0.834,0.874,1.758,1.312,2.784,1.312
	c1.037,0,1.97-0.432,2.795-1.299c0.822-0.864,1.232-2.339,1.232-4.42c0-2.06-0.416-3.529-1.248-4.404
	C49.626,83.27,48.7,82.832,47.681,82.832 M144.673,66.666v8.586h-1.5v-8.586H3.897v44.698h320.009V66.666H144.673z M55.13,96.429
	c-1.883,2.038-4.365,3.057-7.449,3.057c-3.049,0-5.524-1.019-7.426-3.057c-1.861-1.995-2.807-4.561-2.846-7.687v10.38h-5.904V85.617
	l-3.574,13.506h-4.659l-3.519-13.506l-0.057,13.506h-5.904v-21.07h8.885l2.896,12.401l2.951-12.401h8.885v10.3
	c0.039-3.124,0.977-5.688,2.82-7.684c1.879-2.038,4.364-3.055,7.452-3.055c3.047,0,5.517,1.017,7.422,3.055
	c1.9,2.038,2.851,4.665,2.851,7.879C57.954,91.765,57.015,94.392,55.13,96.429 M82.864,99.122H76.62v-6.31
	c-0.019,1.962-0.711,3.502-2.082,4.613c-1.391,1.131-3.06,1.698-5.012,1.698H58.03v-21.07h11.1c2.387,0,4.06,0.537,5.023,1.611
	c0.965,1.074,1.451,2.299,1.451,3.677c0,1.004-0.212,1.828-0.64,2.469c-0.426,0.638-1.047,1.194-1.858,1.666
	c1.039,0.374,1.885,0.98,2.539,1.815c0.643,0.822,0.965,1.947,0.975,3.368V78.053h6.244V99.122z M114.843,96.568
	c-1.652,1.998-3.9,2.996-6.736,2.996c-1.1,0-2.107-0.149-3.025-0.441H84.243V78.1h6.485v15.639h8.968
	c-0.533-1.384-0.811-2.928-0.811-4.645c0-2.982,0.826-5.472,2.48-7.47c1.653-1.998,3.9-2.997,6.74-2.997
	c2.863,0,5.117,0.993,6.756,2.977c1.641,1.984,2.461,4.482,2.461,7.49C117.323,92.08,116.497,94.57,114.843,96.568 M129.358,72.502
	c-0.652-0.166-2.371-0.25-2.893-0.25c-0.938,0-2.791,0.208-3.299,0.623c-0.51,0.416-0.764,1.142-0.764,2.178v4.011h5.322v1.313
	h-5.322v18.75h-1.5v-18.75h-2.996v-1.313h2.996v-4.142c0-1.328,0.41-2.323,1.232-2.987s3.02-0.996,4.326-0.996
	c0.521,0,2.242,0.084,2.896,0.25V72.502z M140.458,72.502c-0.65-0.166-1.236-0.25-1.758-0.25c-0.936,0-3.361,0.208-3.869,0.623
	c-0.508,0.416-0.762,1.142-0.762,2.178v4.011h5.889v1.313h-5.889v18.75h-1.5v-18.75h-2.994v-1.313h2.994v-4.142
	c0-1.328,0.414-2.323,1.236-2.987c0.82-0.664,3.586-0.996,4.891-0.996c0.521,0,1.109,0.084,1.762,0.25V72.502z M144.673,99.127h-1.5
	V79.081h1.5V99.127z M162.714,97.583c-1.535,1.321-3.422,1.981-5.66,1.981c-3.047,0-5.344-1.018-6.893-3.056
	c-1.549-2.037-2.322-4.572-2.322-7.607c0-2.933,0.82-5.377,2.461-7.336s3.893-2.938,6.758-2.938c2.291,0,4.191,0.555,5.703,1.666
	c1.509,1.111,2.369,2.763,2.578,4.959h-1.5c0-1.668-0.65-2.97-1.949-3.909c-1.299-0.935-2.91-1.404-4.832-1.404
	c-2.393,0-4.277,0.887-5.654,2.657c-1.377,1.772-2.064,3.873-2.064,6.305c0,2.819,0.654,5.083,1.967,6.79
	c1.311,1.707,3.227,2.561,5.746,2.561c1.869,0,3.436-0.561,4.695-1.682s2.02-2.623,2.279-4.506h1.5
	C165.188,94.421,164.249,96.26,162.714,97.583 M171.343,95.678c1.258,1.716,3.078,2.574,5.465,2.574
	c1.891,0,3.465-0.518,4.723-1.555c1.256-1.037,2.067-2.478,2.428-4.32h1.5c-0.389,2.318-1.326,4.096-2.805,5.333
	c-1.482,1.236-3.43,1.854-5.846,1.854c-2.834,0-5.018-0.953-6.551-2.86c-1.531-1.908-2.299-4.326-2.299-7.258
	c0-2.983,0.76-5.532,2.283-7.648c1.525-2.114,3.717-3.171,6.582-3.171c2.967,0,5.18,1.006,6.635,3.023
	c1.459,2.016,2.189,4.569,2.189,7.664h-16.19C169.458,91.841,170.085,93.963,171.343,95.678 M197.119,80.398h-5.32v18.75h-1.5
	v-18.75h-2.996v-1.312h2.996v-4.141c0-1.328,0.41-2.324,1.232-2.988c0.82-0.664,3.02-0.996,4.326-0.996
	c0.521,0,2.242,0.084,2.896,0.25v1.312c-0.652-0.166-2.371-0.25-2.893-0.25c-0.938,0-2.793,0.208-3.301,0.623
	c-0.508,0.416-0.762,1.143-0.762,2.18v4.01h5.32V80.398z M214.173,99.148h-1.48v-4.292h-0.08c-1.014,3.004-4.057,4.76-7.178,4.76
	c-7.062,0-7.139-5.657-7.139-8.115V79.094h1.482v12.68c0,2.067,0.234,6.555,5.695,6.555c4.486,0,7.219-3.473,7.219-8.388V79.094
	h1.48V99.148z M227.83,80.46c-1.561-0.195-3.746,0.195-5.541,1.951c-1.482,1.521-2.105,2.77-2.264,5.774v10.963h-1.48V79.094h1.48
	v4.448h0.119c0.779-2.614,4.057-4.72,7.686-4.564V80.46z M245.269,99.148h-1.484V86.467c0-2.066-0.234-6.553-5.695-6.553
	c-4.488,0-7.217,3.471-7.217,8.387v10.847h-1.482V79.094h1.482v4.291h0.076c1.016-3.004,4.059-4.758,7.18-4.758
	c7.062,0,7.141,5.657,7.141,8.115V99.148z M251.472,99.148h-1.5V79.102h1.5V99.148z M251.472,75.273h-1.5v-8.6h1.5V75.273z
	 M263.566,80.407h-4.375V94.38c0,1.48,0.328,2.428,0.984,2.843c0.656,0.414,1.785,0.621,3.391,0.621v1.313
	c-2.447,0-4.037-0.389-4.773-1.169c-0.734-0.779-1.102-1.976-1.102-3.587V80.407h-3.689v-1.313h3.689V66.992h1.5v12.102h4.375
	V80.407z M282.173,99.148h-1.482v-4.292h-0.078c-1.014,3.004-4.057,4.76-7.178,4.76c-7.061,0-7.141-5.657-7.141-8.115V79.094h1.484
	v12.68c0,2.067,0.234,6.555,5.695,6.555c4.486,0,7.217-3.473,7.217-8.388V79.094h1.482V99.148z M295.828,80.46
	c-1.559-0.195-3.744,0.195-5.539,1.951c-1.482,1.521-2.105,2.77-2.262,5.774v10.963h-1.484V79.094h1.484v4.448h0.117
	c0.779-2.614,4.057-4.72,7.684-4.564V80.46z M314.166,89.317h-16.191c-0.08,4.72,2.42,9.012,7.373,9.012
	c3.785,0,6.477-2.263,7.18-5.97h1.48c-0.779,4.682-3.9,7.257-8.66,7.257c-5.852,0-8.934-4.605-8.855-10.143
	c-0.078-5.502,2.809-10.846,8.855-10.846C311.628,78.627,314.437,83.581,314.166,89.317"/>
</svg>
