<?xml version="1.0" encoding="utf-8"?>
<!-- Generator: Adobe Illustrator 15.0.0, SVG Export Plug-In  -->
<!DOCTYPE svg PUBLIC "-//W3C//DTD SVG 1.1//EN" "http://www.w3.org/Graphics/SVG/1.1/DTD/svg11.dtd" [
	<!ENTITY ns_flows "http://ns.adobe.com/Flows/1.0/">
]>
<svg version="1.1"
	 xmlns="http://www.w3.org/2000/svg" xmlns:xlink="http://www.w3.org/1999/xlink" xmlns:a="http://ns.adobe.com/AdobeSVGViewerExtensions/3.0/"
	 x="0px" y="0px" width="235px" height="45px" viewBox="3.645 5.333 235 45"
	 overflow="visible" enable-background="new 3.645 5.333 235 45" xml:space="preserve">
<defs>
</defs>
<rect x="5.353" y="5.333" fill="#FFFFFF" width="228.104" height="42.25"/>
<polygon fill="#007852" points="7.542,0 0,0 0,58.667 1.955,58.667 1.955,68.666 308.917,68.666 308.917,48.666 7.542,48.666 "/>
<polygon fill="#007852" points="56.727,30.902 60.684,30.902 58.809,24.404 "/>
<path fill="#007852" d="M45.329,23.126c-0.512-0.246-1.275-0.367-2.299-0.367h-2.889v4.277h2.504c1.396,0,2.32-0.188,2.771-0.561
	s0.678-0.936,0.678-1.682C46.094,23.929,45.836,23.376,45.329,23.126"/>
<path fill="#007852" d="M86.559,26.806l-1.344-2.069h-4.691c-0.119-0.767-0.463-1.394-1.033-1.885
	c-0.566-0.49-1.244-0.738-2.029-0.738c-1.494,0-2.582,0.497-3.268,1.489c-0.691,0.994-1.031,2.537-1.031,4.639
	c0,1.354,0.352,2.598,1.057,3.725c0.705,1.129,1.934,1.693,3.68,1.693c0.824,0,1.551-0.201,2.178-0.592
	c0.631-0.396,1.018-0.98,1.18-1.756h-2.852v-4.506H86.559z"/>
<path fill="#007852" d="M112.35,22.114c-1.078,0-2.047,0.44-2.9,1.312c-0.854,0.875-1.279,2.361-1.279,4.463
	c0,2.082,0.432,3.562,1.293,4.445c0.865,0.887,1.828,1.326,2.887,1.326c1.082,0,2.047-0.436,2.902-1.309
	c0.855-0.875,1.285-2.363,1.285-4.463c0-2.08-0.436-3.565-1.297-4.449C114.377,22.56,113.415,22.114,112.35,22.114"/>
<path fill="#007852" d="M227.59,4.34v10.053h-1.475V4.34h-5.051v33.781h-1.475V4.34h-5.049v10.053h-1.477V4.34h-20.119v18.053h0.076
	c1.127-3.106,4.35-4.699,7.574-4.699c5.863,0,8.658,4.428,8.658,9.979c0,9.516-5.902,10.913-8.658,10.913
	c-5.244,0-7.262-3.883-7.574-4.932h-0.076v4.466h-1.477V4.34H3.645v44.696h235.258V4.34H227.59z M40.141,32.05v6.348h-6.478v-6.35
	c-0.096,2.328-1.026,4.043-2.811,5.133c-1.885,1.148-4.183,1.721-6.894,1.721c-2.061,0-4.12-0.533-6.172-1.602
	c-2.053-1.066-3.078-3.055-3.078-5.959h6.482c0,0.51,0.092,1.014,0.279,1.502c0.188,0.492,0.559,0.85,1.119,1.076
	c0.561,0.227,1.204,0.34,1.932,0.34c0.92,0,1.6-0.184,2.031-0.547c0.434-0.363,0.649-0.82,0.649-1.369
	c0-0.609-0.367-1.055-1.104-1.34c-0.738-0.285-1.929-0.658-3.58-1.123c-1.65-0.459-2.883-0.859-3.699-1.193
	c-0.816-0.332-1.564-0.898-2.252-1.691c-0.686-0.796-1.031-1.852-1.031-3.171c0-2.278,0.82-4.004,2.461-5.184
	c1.638-1.181,3.646-1.769,6.021-1.769c2.557,0,4.656,0.544,6.305,1.633c1.65,1.086,2.476,2.827,2.476,5.219h-6.125
	c0.057-0.393,0.024-0.721-0.105-0.987c-0.131-0.265-0.334-0.485-0.621-0.675c-0.283-0.188-0.592-0.325-0.926-0.412
	c-0.336-0.088-0.678-0.132-1.031-0.132c-0.57,0-1.1,0.108-1.592,0.323c-0.49,0.217-0.736,0.58-0.736,1.092
	c0,0.511,0.191,0.848,0.574,1.016c0.385,0.167,1.851,0.604,4.404,1.309c2.555,0.709,4.365,1.517,5.436,2.418
	c0.97,0.818,1.496,1.986,1.588,3.496V17.378h10.841c2.609,0,4.553,0.739,5.818,2.225c1.268,1.48,1.898,3.134,1.898,4.965
	c0,2.472-0.738,4.342-2.225,5.596c-1.48,1.26-3.488,1.887-6.021,1.887H40.141z M165.87,38.121h-1.475V24.452
	c0-5.088-3.613-5.476-4.777-5.476c-3.611,0-6.252,2.562-6.252,7.339v11.806h-1.477V24.452c0-5.01-3.416-5.476-4.697-5.476
	c-2.836,0-6.33,2.213-6.33,7.339v6.702v5.104v0.277h-17.859V28.279c-0.076,3.061-1.045,5.578-2.916,7.547
	c-1.955,2.053-4.535,3.076-7.736,3.076c-3.162,0-5.729-1.023-7.701-3.076c-1.619-1.68-2.561-3.768-2.854-6.242v9.318h-6.305
	l-8.484-11.42v11.42h-6.188v-1.023c-0.234,0.129-0.473,0.252-0.727,0.359c-1.049,0.443-2.174,0.664-3.373,0.664
	c-3.043,0-5.477-1.023-7.305-3.076c-0.746-0.84-1.334-1.773-1.773-2.789l1.951,5.361h-6.717l-0.885-2.992h-6.686l-0.943,2.992H47.85
	l7.748-21.02h6.336l5.281,14.484c-0.354-1.156-0.541-2.41-0.541-3.768c0-3.691,1.047-6.486,3.141-8.381
	c2.09-1.896,4.5-2.842,7.23-2.842c1.869,0,3.484,0.342,4.863,1.012h5.486l8.213,11.238l0.059-11.238h6.129v8.3
	c0.291-2.474,1.225-4.556,2.822-6.234c1.953-2.052,4.531-3.077,7.732-3.077c3.164,0,5.729,1.025,7.705,3.077
	c1.893,1.967,2.871,4.489,2.947,7.55V17.378h6.482v15.639h9.9V18.16h1.477v4.078h0.076c0.623-2.524,3.264-4.544,6.254-4.544
	c3.805,0,5.592,2.175,6.018,4.233h0.078c1.166-2.719,3.107-4.233,6.33-4.233c3.611,0,6.252,2.098,6.252,6.796V38.121z
	 M178.497,38.586c-5.863,0-9.166-4.776-9.166-10.446s3.303-10.446,9.166-10.446s9.164,4.776,9.164,10.446
	S184.36,38.586,178.497,38.586 M214.542,38.121h-1.477V18.16h1.477V38.121z M227.59,38.121h-1.476V18.16h1.476V38.121z"/>
<path fill="#007852" d="M200.596,37.305c5.242,0,7.184-5.049,7.184-9.631c0-4.427-2.408-8.698-7.184-8.698
	c-5.205,0-7.611,3.688-7.611,8.698C192.985,32.568,195.16,37.305,200.596,37.305"/>
<path fill="#007852" d="M178.497,18.976c-5.01,0-7.689,4.388-7.689,9.164s2.68,9.165,7.689,9.165s7.689-4.389,7.689-9.165
	S183.506,18.976,178.497,18.976"/>
</svg>
