<?xml version="1.0" encoding="utf-8"?>
<!-- Generator: Adobe Illustrator 15.0.0, SVG Export Plug-In  -->
<!DOCTYPE svg PUBLIC "-//W3C//DTD SVG 1.1//EN" "http://www.w3.org/Graphics/SVG/1.1/DTD/svg11.dtd" [
	<!ENTITY ns_flows "http://ns.adobe.com/Flows/1.0/">
]>
<svg version="1.1"
	 xmlns="http://www.w3.org/2000/svg" xmlns:xlink="http://www.w3.org/1999/xlink" xmlns:a="http://ns.adobe.com/AdobeSVGViewerExtensions/3.0/"
	 x="0px" y="0px" width="250px" height="45px" viewBox="3.645 5.333 250 45"
	 overflow="visible" enable-background="new 3.645 5.333 250 45" xml:space="preserve">
<defs>
</defs>
<rect x="5.353" y="5.333" fill="#FFFFFF" width="239.104" height="42.25"/>
<polygon fill="#DC002E" points="7.542,0 0,0 0,58.667 1.955,58.667 1.955,68.666 308.917,68.666 308.917,48.666 7.542,48.666 "/>
<path fill="#DC002E" d="M112.351,22.107c-1.078,0-2.047,0.44-2.9,1.312c-0.854,0.875-1.279,2.361-1.279,4.462
	c0,2.082,0.432,3.563,1.293,4.446c0.865,0.886,1.828,1.326,2.887,1.326c1.082,0,2.047-0.436,2.902-1.309
	c0.855-0.875,1.285-2.363,1.285-4.463c0-2.08-0.436-3.565-1.297-4.449C114.378,22.554,113.415,22.107,112.351,22.107 M86.56,26.8
	l-1.344-2.069h-4.691c-0.119-0.767-0.463-1.393-1.033-1.885c-0.566-0.49-1.244-0.738-2.029-0.738c-1.494,0-2.582,0.497-3.268,1.489
	c-0.691,0.994-1.031,2.537-1.031,4.639c0,1.353,0.352,2.598,1.057,3.724c0.705,1.129,1.934,1.694,3.68,1.694
	c0.824,0,1.551-0.201,2.178-0.592c0.631-0.396,1.018-0.98,1.18-1.756h-2.852V26.8H86.56z M45.329,23.121
	c-0.512-0.246-1.275-0.368-2.299-0.368h-2.888v4.278h2.503c1.397,0,2.321-0.188,2.772-0.561s0.678-0.935,0.678-1.681
	C46.095,23.922,45.837,23.37,45.329,23.121 M56.728,30.896h3.957l-1.875-6.498L56.728,30.896z M238.939,21.057
	c-1.324-1.589-3.104-2.384-5.336-2.384c-2.131,0-3.891,0.822-5.279,2.462c-1.391,1.641-2.084,3.508-2.084,5.601h14.688
	C240.927,24.54,240.263,22.646,238.939,21.057 M200.697,4.333v9.653h-1.5V4.333H3.645v44.697h250.009V4.333H200.697z M40.142,32.043
	v6.348h-6.479v-6.349c-0.096,2.328-1.025,4.042-2.81,5.132c-1.885,1.149-4.184,1.721-6.895,1.721c-2.061,0-4.119-0.533-6.172-1.602
	c-2.053-1.066-3.078-3.054-3.078-5.959h6.482c0,0.51,0.092,1.014,0.28,1.502c0.188,0.493,0.558,0.85,1.119,1.077
	c0.56,0.226,1.203,0.339,1.931,0.339c0.92,0,1.6-0.183,2.032-0.546c0.433-0.364,0.648-0.821,0.648-1.37
	c0-0.609-0.367-1.054-1.103-1.339c-0.739-0.285-1.93-0.659-3.58-1.123c-1.651-0.459-2.883-0.86-3.7-1.194
	c-0.816-0.332-1.564-0.898-2.252-1.691c-0.685-0.796-1.031-1.852-1.031-3.171c0-2.278,0.82-4.004,2.461-5.184
	c1.639-1.181,3.647-1.768,6.022-1.768c2.556,0,4.656,0.544,6.304,1.633c1.651,1.086,2.477,2.827,2.477,5.218h-6.125
	c0.056-0.392,0.023-0.72-0.106-0.987c-0.13-0.264-0.334-0.486-0.621-0.675c-0.283-0.187-0.592-0.325-0.926-0.412
	c-0.335-0.088-0.677-0.132-1.031-0.132c-0.57,0-1.099,0.108-1.592,0.323c-0.49,0.217-0.736,0.581-0.736,1.092
	c0,0.511,0.192,0.848,0.574,1.016c0.385,0.167,1.852,0.604,4.405,1.309c2.554,0.708,4.365,1.516,5.435,2.417
	c0.971,0.819,1.496,1.987,1.588,3.497V17.372h10.842c2.609,0,4.553,0.74,5.818,2.225c1.268,1.481,1.898,3.134,1.898,4.965
	c0,2.472-0.739,4.342-2.225,5.596c-1.48,1.259-3.488,1.886-6.021,1.886H40.142z M152.099,36.316
	c-1.535,1.321-3.422,1.981-5.66,1.981c-0.314,0-0.615-0.018-0.914-0.04l0.232,0.134h-22.754V28.272
	c-0.076,3.061-1.045,5.578-2.916,7.547c-1.955,2.053-4.535,3.076-7.736,3.076c-3.162,0-5.729-1.023-7.701-3.076
	c-1.619-1.68-2.561-3.768-2.854-6.242v9.318h-6.305l-8.484-11.42v11.42h-6.188v-1.023c-0.234,0.129-0.473,0.252-0.727,0.359
	c-1.049,0.443-2.174,0.664-3.373,0.664c-3.043,0-5.477-1.023-7.305-3.076c-0.746-0.84-1.334-1.774-1.773-2.789l1.951,5.361h-6.717
	l-0.885-2.992h-6.686l-0.943,2.992h-6.511l7.748-21.02h6.336l5.281,14.485c-0.354-1.156-0.541-2.41-0.541-3.768
	c0-3.691,1.047-6.486,3.141-8.381c2.09-1.895,4.5-2.841,7.23-2.841c1.869,0,3.484,0.342,4.863,1.011h5.485l8.214,11.239
	l0.059-11.239h6.129v8.3c0.291-2.473,1.224-4.555,2.822-6.234c1.953-2.052,4.531-3.077,7.732-3.077c3.164,0,5.729,1.025,7.705,3.077
	c1.893,1.967,2.871,4.489,2.947,7.55V17.372h6.482v15.639h8.768c-0.682-1.574-1.029-3.363-1.029-5.376
	c0-2.931,0.82-5.377,2.461-7.336c1.641-1.959,3.893-2.938,6.758-2.938c2.291,0,4.191,0.556,5.702,1.666
	c1.511,1.111,2.37,2.764,2.579,4.959h-1.5c0-1.668-0.65-2.97-1.949-3.907s-2.91-1.406-4.834-1.406c-2.391,0-4.275,0.887-5.652,2.659
	c-1.377,1.771-2.064,3.873-2.064,6.303c0,2.821,0.654,5.083,1.967,6.79c1.311,1.707,3.227,2.561,5.745,2.561
	c1.87,0,3.437-0.561,4.696-1.682s2.02-2.623,2.279-4.506h1.5C154.571,33.155,153.634,34.996,152.099,36.316 M174.276,37.86h-1.5
	v-4.313c-0.545,1.481-1.482,2.642-2.805,3.486c-1.327,0.843-2.807,1.264-4.441,1.264c-3.039,0-4.986-0.818-5.845-2.455
	c-0.856-1.636-1.284-3.52-1.284-5.651V17.797h1.5v12.65c0,1.738,0.35,3.262,1.049,4.573c0.701,1.311,2.244,1.965,4.629,1.965
	c2.205,0,3.955-0.765,5.252-2.296c1.297-1.531,1.945-3.555,1.945-6.072v-10.82h1.5V37.86z M192.582,36.316
	c-1.537,1.321-3.424,1.981-5.662,1.981c-3.045,0-5.342-1.017-6.891-3.054c-1.55-2.037-2.324-4.574-2.324-7.609
	c0-2.931,0.82-5.377,2.461-7.336c1.643-1.959,3.895-2.938,6.758-2.938c2.291,0,4.193,0.556,5.703,1.666
	c1.512,1.111,2.369,2.764,2.578,4.959h-1.5c0-1.668-0.648-2.97-1.949-3.907c-1.299-0.937-2.908-1.406-4.832-1.406
	c-2.391,0-4.276,0.887-5.654,2.659c-1.376,1.771-2.065,3.873-2.065,6.303c0,2.821,0.656,5.083,1.967,6.79
	c1.312,1.707,3.229,2.561,5.749,2.561c1.869,0,3.434-0.561,4.693-1.682s2.02-2.623,2.281-4.506h1.5
	C195.054,33.155,194.117,34.996,192.582,36.316 M200.697,37.86h-1.5V17.814h1.5V37.86z M221.31,37.86h-1.5V25.21
	c0-1.738-0.35-3.261-1.051-4.572c-0.699-1.31-2.242-1.966-4.627-1.966c-2.205,0-3.955,0.766-5.252,2.297
	c-1.297,1.532-1.945,3.555-1.945,6.072V37.86h-1.5V17.797h1.5v4.313c0.543-1.48,1.48-2.641,2.805-3.484
	c1.324-0.844,2.805-1.266,4.441-1.266c3.039,0,4.986,0.819,5.844,2.456c0.857,1.637,1.285,3.52,1.285,5.65V37.86z M228.125,34.414
	c1.256,1.714,3.078,2.572,5.463,2.572c1.891,0,3.465-0.518,4.723-1.555c1.256-1.037,2.066-2.476,2.43-4.32h1.5
	c-0.391,2.318-1.326,4.097-2.807,5.333c-1.482,1.236-3.43,1.854-5.846,1.854c-2.834,0-5.016-0.953-6.549-2.86
	c-1.533-1.906-2.299-4.326-2.299-7.258c0-2.983,0.76-5.532,2.283-7.647c1.523-2.114,3.717-3.172,6.58-3.172
	c2.967,0,5.18,1.008,6.637,3.023c1.457,2.016,2.188,4.571,2.188,7.664H226.24C226.24,30.577,226.867,32.699,228.125,34.414"/>
</svg>
