<?xml version="1.0" encoding="utf-8"?>
<!-- Generator: Adobe Illustrator 15.0.0, SVG Export Plug-In  -->
<!DOCTYPE svg PUBLIC "-//W3C//DTD SVG 1.1//EN" "http://www.w3.org/Graphics/SVG/1.1/DTD/svg11.dtd" [
	<!ENTITY ns_flows "http://ns.adobe.com/Flows/1.0/">
]>
<svg version="1.1"
	 xmlns="http://www.w3.org/2000/svg" xmlns:xlink="http://www.w3.org/1999/xlink" xmlns:a="http://ns.adobe.com/AdobeSVGViewerExtensions/3.0/"
	 x="0px" y="0px" width="305px" height="45px" viewBox="3.645 5.333 305 45"
	 overflow="visible" enable-background="new 3.645 5.333 305 45" xml:space="preserve">
<defs>
</defs>
<rect x="5.353" y="5.333" fill="#FFFFFF" width="296.604" height="42.25"/>
<polygon fill="#9F935D" points="7.542,0 0,0 0,58.667 1.955,58.667 1.955,68.666 308.917,68.666 308.917,48.666 7.542,48.666 "/>
<path fill="#9E925C" d="M187.451,19.938c-5.009,0-7.687,4.389-7.687,9.162c0,4.777,2.678,9.166,7.687,9.166
	c5.01,0,7.689-4.389,7.689-9.166C195.14,24.326,192.46,19.938,187.451,19.938 M148.613,31.957h3.844l-1.82-6.232L148.613,31.957z
	 M299.189,5.333v10.022h-1.475V5.333h-46.061v10.022h-1.479V5.333h-41.752V39.08h-1.475V5.333H201.9V39.08h-1.475V5.333H3.645
	v44.696h305.218V5.333H299.189z M20.748,39.211l-7.433-20.277h7.689l3.32,12.303l3.323-12.303H35.1l-7.369,20.277H20.748z
	 M42.846,39.211l-0.852-2.906h-6.443l-0.908,2.906h-6.274l7.465-20.277h6.104l7.38,20.277H42.846z M64.594,39.211H49.379V18.934
	h6.244v15.09h8.971V39.211z M80.857,31.223c-1.434,1.219-3.377,1.826-5.832,1.826h-3.716v6.152h-6.278V18.833h10.506
	c2.527,0,4.412,0.718,5.639,2.155c1.229,1.436,1.84,3.039,1.84,4.812C83.016,28.195,82.299,30.006,80.857,31.223 M98.283,39.208
	H83.068V18.93h6.244v15.09h8.971V39.208z M112.797,39.208l-0.852-2.907h-6.443l-0.91,2.907H98.32l7.465-20.278h6.102l7.383,20.278
	H112.797z M139.939,39.246h-7.344l-7.094-9.898v9.898h-6.17V18.797h7.742l6.521,9.438v-9.438h6.344V39.246z M167.334,39.547
	c-0.976,0-1.854-0.127-2.658-0.342h-10.115l-0.854-2.906h-6.441l-0.91,2.906h-6.271l7.463-20.277h6.104l4.83,13.111
	c-0.207-1.004-0.311-2.061-0.311-3.133c0-5.551,3.262-10.25,9.164-10.25c4.309,0,7.805,2.098,8.23,6.641h-1.475
	c-0.271-3.533-3.146-5.359-6.756-5.359c-5.012,0-7.689,4.428-7.689,8.969c0,5.398,2.525,9.359,7.689,9.359
	c3.727,0,6.445-2.564,6.949-6.215h1.477C175.1,36.83,171.643,39.547,167.334,39.547 M187.451,39.547
	c-5.863,0-9.164-4.777-9.164-10.447c0-5.668,3.301-10.443,9.164-10.443c5.865,0,9.166,4.775,9.166,10.443
	C196.617,34.77,193.316,39.547,187.451,39.547 M229.822,29.297h-16.115c-0.078,4.697,2.408,8.969,7.34,8.969
	c3.766,0,6.445-2.252,7.145-5.941h1.477c-0.777,4.66-3.885,7.223-8.621,7.223c-5.826,0-8.893-4.58-8.816-10.098
	c-0.076-5.473,2.797-10.793,8.816-10.793C227.298,18.656,230.093,23.588,229.822,29.297 M247.3,39.08h-15.844v-1.396l13.398-17.279
	h-12.35v-1.283h14.174v1.398l-13.436,17.281H247.3V39.08z M251.654,39.08h-1.479V19.121h1.479V39.08z M264.583,39.547
	c-5.863,0-9.166-4.777-9.166-10.447c0-5.668,3.303-10.443,9.166-10.443s9.164,4.775,9.164,10.443
	C273.748,34.77,270.447,39.547,264.583,39.547 M293.013,39.08h-1.477V26.458c0-2.054-0.232-6.521-5.668-6.521
	c-4.467,0-7.186,3.457-7.186,8.348V39.08h-1.475V19.121h1.475v4.273h0.078c1.01-2.99,4.039-4.738,7.145-4.738
	c7.029,0,7.107,5.631,7.107,8.078V39.08z M299.189,39.08h-1.475V19.121h1.475V39.08z M76.336,24.404
	c-0.496-0.238-1.234-0.355-2.229-0.355h-2.798v4.145h2.427c1.352,0,2.247-0.184,2.684-0.547c0.438-0.361,0.658-0.904,0.658-1.629
	C77.078,25.182,76.828,24.646,76.336,24.404 M106.852,31.957h3.844l-1.822-6.23L106.852,31.957z M36.901,31.961h3.843l-1.822-6.232
	L36.901,31.961z M264.583,19.938c-5.01,0-7.689,4.389-7.689,9.162c0,4.777,2.68,9.166,7.689,9.166s7.689-4.389,7.689-9.166
	C272.273,24.326,269.593,19.938,264.583,19.938 M221.046,19.938c-4.428,0-7.029,4.117-7.34,8.076h14.641
	C228.269,23.82,225.628,19.938,221.046,19.938"/>
</svg>
