<?xml version="1.0" encoding="utf-8"?>
<!-- Generator: Adobe Illustrator 15.0.0, SVG Export Plug-In  -->
<!DOCTYPE svg PUBLIC "-//W3C//DTD SVG 1.1//EN" "http://www.w3.org/Graphics/SVG/1.1/DTD/svg11.dtd" [
	<!ENTITY ns_flows "http://ns.adobe.com/Flows/1.0/">
]>
<svg version="1.1"
	 xmlns="http://www.w3.org/2000/svg" xmlns:xlink="http://www.w3.org/1999/xlink" xmlns:a="http://ns.adobe.com/AdobeSVGViewerExtensions/3.0/"
	 x="0px" y="0px" width="233px" height="45px" viewBox="3.645 5.333 233 45"
	 overflow="visible" enable-background="new 3.645 5.333 233 45" xml:space="preserve">
<defs>
</defs>
<rect x="5.353" y="5.333" fill="#FFFFFF" width="228.104" height="42.25"/>
<polygon fill="#999619" points="7.542,0 0,0 0,58.667 1.955,58.667 1.955,68.666 308.917,68.666 308.917,48.666 7.542,48.666 "/>
<path fill="#999619" d="M191.249,18.343c-2.393,0-4.277,0.892-5.654,2.677c-1.377,1.786-2.064,3.946-2.064,6.479
	c0,2.537,0.682,4.695,2.047,6.48c1.363,1.786,3.254,2.676,5.672,2.676c2.391,0,4.275-0.89,5.652-2.676
	c1.377-1.785,2.066-3.943,2.066-6.48c0-2.533-0.684-4.693-2.047-6.479C195.555,19.235,193.665,18.343,191.249,18.343
	 M162.637,27.765c-1.629,0.168-2.896,0.607-3.803,1.318c-0.904,0.711-1.357,1.789-1.357,3.232c0,1.268,0.453,2.307,1.357,3.12
	c0.906,0.814,2.199,1.22,3.881,1.22c2.225,0,4.021-0.654,5.393-1.965c1.371-1.31,2.057-2.925,2.057-4.847v-3.688
	c-0.492,0.545-1.461,0.905-2.91,1.086C165.805,27.423,164.266,27.597,162.637,27.765 M112.397,21.728
	c-1.078,0-2.047,0.439-2.9,1.312c-0.854,0.875-1.279,2.359-1.279,4.461c0,2.084,0.432,3.562,1.293,4.445
	c0.865,0.889,1.828,1.326,2.887,1.326c1.082,0,2.047-0.435,2.902-1.308c0.855-0.875,1.285-2.363,1.285-4.463
	c0-2.08-0.436-3.564-1.297-4.449C114.424,22.173,113.461,21.728,112.397,21.728 M86.606,26.421l-1.344-2.072h-4.691
	c-0.119-0.766-0.463-1.391-1.033-1.883c-0.566-0.49-1.244-0.738-2.029-0.738c-1.494,0-2.582,0.496-3.268,1.488
	c-0.691,0.994-1.031,2.537-1.031,4.638c0,1.356,0.352,2.6,1.057,3.727c0.705,1.129,1.934,1.691,3.68,1.691
	c0.824,0,1.551-0.201,2.178-0.591c0.631-0.395,1.018-0.979,1.18-1.756h-2.852v-4.504H86.606z M56.774,30.515h3.957l-1.875-6.498
	L56.774,30.515z M45.375,22.741c-0.512-0.246-1.275-0.369-2.299-0.369h-2.889v4.277h2.504c1.396,0,2.32-0.187,2.771-0.56
	s0.678-0.936,0.678-1.68C46.141,23.542,45.883,22.989,45.375,22.741 M3.645,50.028h233.379V5.333H3.645V50.028z M40.188,31.665
	v6.346h-6.479v-6.348c-0.096,2.328-1.025,4.043-2.811,5.133c-1.885,1.146-4.184,1.719-6.895,1.719c-2.06,0-4.119-0.534-6.172-1.6
	c-2.052-1.068-3.078-3.057-3.078-5.959h6.483c0,0.508,0.092,1.012,0.279,1.502c0.188,0.492,0.559,0.848,1.119,1.076
	c0.561,0.225,1.203,0.34,1.932,0.34c0.92,0,1.599-0.186,2.031-0.547c0.434-0.365,0.649-0.822,0.649-1.369
	c0-0.611-0.368-1.057-1.104-1.34c-0.738-0.285-1.93-0.658-3.58-1.123c-1.65-0.459-2.883-0.861-3.699-1.195
	c-0.817-0.332-1.565-0.899-2.252-1.692c-0.686-0.795-1.031-1.851-1.031-3.17c0-2.277,0.82-4.003,2.46-5.183
	c1.639-1.182,3.647-1.77,6.022-1.77c2.557,0,4.656,0.545,6.305,1.635c1.65,1.086,2.476,2.826,2.476,5.217h-6.125
	c0.057-0.393,0.024-0.719-0.105-0.986c-0.131-0.264-0.334-0.487-0.621-0.676c-0.284-0.188-0.592-0.324-0.926-0.412
	c-0.336-0.088-0.678-0.131-1.031-0.131c-0.571,0-1.1,0.107-1.592,0.322c-0.49,0.217-0.737,0.582-0.737,1.092
	c0,0.512,0.192,0.849,0.575,1.016c0.384,0.167,1.851,0.605,4.404,1.31c2.555,0.709,4.365,1.514,5.436,2.418
	c0.97,0.816,1.496,1.984,1.587,3.496V16.991h10.842c2.609,0,4.553,0.74,5.818,2.225c1.268,1.48,1.898,3.135,1.898,4.965
	c0,2.472-0.738,4.341-2.225,5.595c-1.48,1.262-3.488,1.889-6.021,1.889H40.188z M150.944,36.667
	c-1.492,0.831-3.244,1.253-5.238,1.287l0.098,0.057h-22.754V27.892c-0.076,3.062-1.045,5.578-2.916,7.546
	c-1.955,2.055-4.535,3.077-7.736,3.077c-3.162,0-5.729-1.022-7.701-3.077c-1.619-1.679-2.561-3.767-2.854-6.242v9.319h-6.305
	l-8.484-11.42v11.42h-6.188v-1.022c-0.234,0.129-0.473,0.252-0.727,0.358c-1.049,0.445-2.174,0.664-3.373,0.664
	c-3.043,0-5.477-1.022-7.305-3.077c-0.746-0.839-1.334-1.771-1.773-2.789l1.951,5.362h-6.717l-0.885-2.992h-6.686l-0.943,2.992
	h-6.512l7.748-21.02h6.336l5.281,14.485c-0.354-1.157-0.541-2.411-0.541-3.766c0-3.693,1.047-6.488,3.141-8.383
	c2.09-1.894,4.5-2.842,7.23-2.842c1.869,0,3.484,0.344,4.863,1.012h5.486l8.213,11.238l0.059-11.238h6.129v8.299
	c0.291-2.471,1.225-4.553,2.822-6.233c1.953-2.052,4.531-3.078,7.732-3.078c3.164,0,5.729,1.026,7.705,3.078
	c1.893,1.967,2.871,4.489,2.947,7.549V16.991h6.482V32.63h7.992c-0.115-0.551-0.18-1.137-0.18-1.768l1.5-0.019
	c0,0.864,0.15,1.639,0.445,2.331l1.723,2.087l1.461,0.839c0.889,0.356,1.871,0.555,2.975,0.555c1.633,0,3.096-0.316,4.391-0.951
	c1.295-0.635,1.943-1.73,1.943-3.283c0-1.762-0.701-2.877-2.104-3.342c-1.402-0.467-3.254-0.934-5.551-1.4
	c-2.299-0.467-3.889-1.139-4.771-2.02c-0.883-0.883-1.324-2.047-1.324-3.498c0-1.814,0.709-3.121,2.129-3.926
	c1.418-0.802,3.131-1.205,5.137-1.205c2.266,0,4.068,0.52,5.41,1.557c1.34,1.039,2.012,2.646,2.012,4.826h-1.5
	c0-1.703-0.539-2.973-1.617-3.812c-1.078-0.838-2.514-1.258-4.305-1.258c-1.559,0-2.91,0.312-4.053,0.933s-1.713,1.594-1.713,2.914
	c0,1.659,0.643,2.702,1.928,3.129c1.285,0.428,2.986,0.856,5.102,1.284c2.117,0.427,3.766,1.029,4.947,1.806
	c1.182,0.778,1.773,2.125,1.773,4.041C153.282,34.394,152.502,35.8,150.944,36.667 M174.112,37.343
	c-0.369,0.062-0.631,0.111-0.789,0.14c-0.158,0.032-0.303,0.047-0.434,0.047c-1.105,0-1.836-0.24-2.191-0.724
	c-0.355-0.485-0.533-1.221-0.533-2.217V33.53c-0.545,1.272-1.471,2.33-2.779,3.174c-1.309,0.842-2.883,1.264-4.723,1.264
	c-2.021,0-3.641-0.448-4.859-1.342c-1.217-0.897-1.826-2.33-1.826-4.301c0-2.129,0.717-3.648,2.152-4.556
	c1.434-0.909,3.158-1.364,5.174-1.364c3.127,0,5.053-0.258,5.775-0.775c0.725-0.516,1.086-1.639,1.086-3.371
	c0-0.776-0.424-1.621-1.273-2.539s-2.266-1.377-4.248-1.377c-1.828,0-3.303,0.465-4.424,1.394c-1.119,0.93-1.68,2.233-1.68,3.91
	h-1.5c0-2.152,0.668-3.794,2.004-4.923c1.334-1.129,3.209-1.694,5.621-1.694c2.047,0,3.727,0.391,5.035,1.17
	c1.311,0.778,1.965,2.127,1.965,4.047v11.559c0,0.804,0.072,1.408,0.217,1.81c0.145,0.403,0.52,0.602,1.125,0.602l1.105-0.188
	V37.343z M179.192,37.53h-1.715V5.448h1.715V37.53z M197.987,34.972c-1.654,1.998-3.9,2.996-6.738,2.996
	c-2.865,0-5.117-0.992-6.758-2.975c-1.641-1.986-2.461-4.484-2.461-7.494c0-2.982,0.826-5.473,2.48-7.471
	c1.652-1.998,3.898-2.998,6.738-2.998c2.863,0,5.117,0.994,6.758,2.979c1.641,1.984,2.461,4.482,2.461,7.49
	C200.467,30.483,199.639,32.974,197.987,34.972 M211.284,18.78h-4.375v13.975c0,1.478,0.328,2.426,0.986,2.842
	c0.656,0.414,1.785,0.621,3.389,0.621v1.312c-2.445,0-4.035-0.388-4.771-1.168c-0.736-0.779-1.104-1.976-1.104-3.588V18.78h-3.688
	v-1.312h3.688V5.366h1.5v12.102h4.375V18.78z M221.385,18.78h-4.375v13.975c0,1.478,0.328,2.426,0.984,2.842
	c0.656,0.414,1.787,0.621,3.391,0.621v1.312c-2.445,0-4.035-0.388-4.771-1.168c-0.736-0.779-1.104-1.976-1.104-3.588V18.78h-3.688
	v-1.312h3.688V5.366h1.5v12.102h4.375V18.78z M225.922,37.532h-1.5V17.485h1.5V37.532z M225.922,13.655h-1.5V5.366h1.5V13.655z"/>
</svg>
