<?xml version="1.0" encoding="utf-8"?>
<!-- Generator: Adobe Illustrator 15.0.0, SVG Export Plug-In  -->
<!DOCTYPE svg PUBLIC "-//W3C//DTD SVG 1.1//EN" "http://www.w3.org/Graphics/SVG/1.1/DTD/svg11.dtd" [
	<!ENTITY ns_flows "http://ns.adobe.com/Flows/1.0/">
]>
<svg version="1.1"
	 xmlns="http://www.w3.org/2000/svg" xmlns:xlink="http://www.w3.org/1999/xlink" xmlns:a="http://ns.adobe.com/AdobeSVGViewerExtensions/3.0/"
	 x="0px" y="0px" width="356px" height="45px" viewBox="5.646 5.333 356 45"
	 overflow="visible" enable-background="new 5.646 5.333 356 45" xml:space="preserve">
<defs>
</defs>
<rect x="7.354" y="5.333" fill="#FFFFFF" width="350.062" height="42.25"/>
<path fill="#56C0D9" d="M76.472,31.365h3.842l-1.821-6.232L76.472,31.365z M261.819,18.758c-2.525,0-4.432,0.789-5.719,2.366
	c-1.289,1.578-1.934,3.685-1.934,6.323c0,2.717,0.629,4.999,1.895,6.85c1.262,1.849,3.182,2.773,5.758,2.773
	c2.447,0,4.262-0.951,5.447-2.851c1.184-1.901,1.775-4.158,1.775-6.772c0-2.405-0.631-4.455-1.893-6.148
	C265.885,19.605,264.11,18.758,261.819,18.758 M202.749,21.141c-1.326-1.588-3.104-2.383-5.336-2.383
	c-2.131,0-3.892,0.82-5.281,2.461c-1.389,1.641-2.084,3.508-2.084,5.601h14.689C204.737,24.624,204.073,22.731,202.749,21.141
	 M154.026,28.178c-1.63,0.168-2.9,0.606-3.803,1.317c-0.906,0.711-1.357,1.789-1.357,3.235c0,1.265,0.451,2.305,1.357,3.118
	c0.902,0.815,2.197,1.222,3.882,1.222c2.224,0,4.021-0.656,5.392-1.966c1.371-1.311,2.057-2.926,2.057-4.846V26.57
	c-0.492,0.542-1.465,0.903-2.91,1.084C157.194,27.836,155.655,28.01,154.026,28.178 M279.76,28.178
	c-1.631,0.168-2.896,0.606-3.805,1.317c-0.902,0.711-1.355,1.789-1.355,3.235c0,1.265,0.453,2.305,1.355,3.118
	c0.908,0.815,2.201,1.222,3.881,1.222c2.226,0,4.023-0.656,5.395-1.966c1.371-1.311,2.057-2.926,2.057-4.846V26.57
	c-0.494,0.542-1.461,0.903-2.912,1.084C282.928,27.836,281.389,28.01,279.76,28.178 M239.692,18.758
	c-2.393,0-4.275,0.892-5.652,2.676c-1.377,1.785-2.066,3.945-2.066,6.479c0,2.535,0.682,4.695,2.047,6.479
	c1.365,1.785,3.256,2.677,5.672,2.677c2.391,0,4.273-0.892,5.652-2.677c1.377-1.785,2.066-3.945,2.066-6.479
	c0-2.534-0.683-4.694-2.047-6.479C243.999,19.65,242.108,18.758,239.692,18.758 M217.727,18.758c-2.467,0-4.322,0.879-5.568,2.638
	c-1.246,1.758-1.869,3.944-1.869,6.556c0,2.56,0.635,4.722,1.908,6.48c1.271,1.759,3.129,2.638,5.568,2.638
	c2.389,0,4.219-0.892,5.488-2.677c1.273-1.785,1.91-3.932,1.91-6.441c0-2.535-0.637-4.701-1.91-6.499
	C221.985,19.656,220.141,18.758,217.727,18.758 M343.002,18.758c-2.391,0-4.275,0.892-5.652,2.676
	c-1.377,1.785-2.066,3.945-2.066,6.479c0,2.535,0.68,4.695,2.047,6.479c1.365,1.785,3.254,2.677,5.672,2.677
	c2.391,0,4.275-0.892,5.652-2.677c1.377-1.785,2.066-3.945,2.066-6.479c0-2.534-0.684-4.694-2.047-6.479
	C347.309,19.65,345.418,18.758,343.002,18.758 M40.417,31.365h3.847l-1.824-6.232L40.417,31.365z M5.646,50.036h356.008V5.34H5.646
	V50.036z M17.267,38.614V18.336h6.246v15.092h8.389l-2.256,5.186H17.267z M46.366,38.614l-0.851-2.905h-6.447l-0.907,2.905h-6.272
	l7.467-20.278h6.101l7.379,20.278H46.366z M56.758,38.614l-6.047-20.278h6.306l3.317,12.303l3.324-12.303h6.414l-6.33,20.278H56.758
	z M82.417,38.614l-0.853-2.905h-6.442l-0.91,2.905h-6.272l7.465-20.278h6.103l7.384,20.278H82.417z M106.909,38.614H91.693V18.336
	h6.244v15.092h8.972V38.614z M124.715,38.614H109.5V18.336h6.246v15.092h8.969V38.614z M165.5,37.758
	c-0.371,0.062-0.633,0.108-0.791,0.14c-0.16,0.032-0.303,0.047-0.434,0.047c-1.107,0-1.836-0.242-2.193-0.726
	c-0.353-0.483-0.529-1.222-0.529-2.215v-1.059c-0.545,1.272-1.471,2.329-2.779,3.172c-1.311,0.844-2.883,1.266-4.725,1.266
	c-0.705,0-1.344-0.075-1.951-0.185l0.484,0.416H127.31V18.336h16.774v5.187h-10.529v2.563h9.564v4.811h-9.564v2.531h13.838
	c-0.018-0.223-0.027-0.452-0.027-0.691c0-2.127,0.717-3.645,2.15-4.555c1.434-0.907,3.158-1.362,5.176-1.362
	c3.127,0,5.051-0.258,5.773-0.775c0.725-0.517,1.088-1.641,1.088-3.373c0-0.775-0.426-1.621-1.275-2.539
	c-0.85-0.916-2.266-1.375-4.248-1.375c-1.828,0-3.303,0.463-4.422,1.393c-1.121,0.929-1.68,2.232-1.68,3.91h-1.5
	c0-2.154,0.666-3.795,2.002-4.924s3.209-1.692,5.619-1.692c2.051,0,3.729,0.389,5.039,1.167c1.308,0.779,1.965,2.127,1.965,4.047
	v11.56c0,0.805,0.072,1.408,0.218,1.81c0.144,0.403,0.519,0.604,1.125,0.604l1.104-0.188V37.758z M177.081,19.258
	c-0.158-0.041-0.402-0.063-0.74-0.063c-0.803,0-1.627,0.163-2.469,0.487c-0.842,0.326-1.639,0.867-2.391,1.623
	c-0.751,0.754-1.307,1.529-1.654,2.324c-0.35,0.795-0.523,1.907-0.523,3.34v10.976h-1.5V17.883h1.5v4.437
	c0.468-1.327,1.418-2.418,2.857-3.275c1.439-0.858,3.078-1.287,4.92-1.287V19.258z M187.92,19.258
	c-0.154-0.041-0.4-0.063-0.736-0.063c-0.807,0-1.627,0.163-2.473,0.487c-0.84,0.326-1.637,0.867-2.389,1.623
	c-0.752,0.754-1.305,1.529-1.654,2.324s-0.523,1.907-0.523,3.34v10.976h-1.5V17.883h1.5v4.437c0.467-1.327,1.417-2.418,2.855-3.275
	c1.441-0.858,3.08-1.287,4.92-1.287V19.258z M191.934,34.498c1.256,1.716,3.078,2.573,5.462,2.573c1.892,0,3.466-0.517,4.724-1.556
	c1.256-1.037,2.066-2.476,2.428-4.319h1.5c-0.389,2.317-1.324,4.096-2.805,5.333c-1.484,1.236-3.431,1.855-5.847,1.855
	c-2.834,0-5.017-0.955-6.548-2.861c-1.533-1.907-2.301-4.326-2.301-7.258c0-2.984,0.762-5.532,2.283-7.648
	c1.525-2.114,3.717-3.171,6.582-3.171c2.965,0,5.178,1.007,6.635,3.024c1.457,2.015,2.189,4.569,2.189,7.664h-16.189
	C190.047,30.66,190.674,32.782,191.934,34.498 M226.665,37.945h-1.5v-4.312c-1.711,3.166-4.293,4.75-7.742,4.75
	c-2.85,0-5.004-0.986-6.457-2.957c-1.449-1.973-2.176-4.463-2.176-7.474c0-3.112,0.756-5.643,2.275-7.589
	c1.516-1.945,3.729-2.918,6.633-2.918c1.684,0,3.209,0.442,4.57,1.326c1.359,0.883,2.301,2.092,2.816,3.627l0.08-17.046h1.5V37.945z
	 M246.43,35.385c-1.654,1.998-3.9,2.998-6.738,2.998c-2.865,0-5.117-0.994-6.758-2.978c-1.641-1.983-2.461-4.481-2.461-7.492
	c0-2.983,0.824-5.473,2.48-7.471c1.654-1.998,3.899-2.997,6.738-2.997c2.865,0,5.117,0.993,6.758,2.977
	c1.639,1.984,2.461,4.482,2.461,7.491C248.911,30.898,248.084,33.387,246.43,35.385 M267.752,36.028
	c-1.857,1.57-3.828,2.355-5.904,2.355c-1.742,0-3.344-0.467-4.799-1.4c-1.453-0.932-2.389-2.113-2.805-3.538l-0.078,4.5h-1.5V5.353
	h1.5v16.811c0.572-1.481,1.572-2.638,3.002-3.47s2.99-1.248,4.68-1.248c2.807,0,4.957,0.934,6.449,2.802
	c1.496,1.868,2.244,4.267,2.244,7.199C270.542,31.598,269.612,34.458,267.752,36.028 M291.235,37.758
	c-0.369,0.062-0.632,0.108-0.789,0.14c-0.158,0.032-0.303,0.047-0.434,0.047c-1.105,0-1.838-0.242-2.191-0.726
	c-0.357-0.483-0.533-1.222-0.533-2.215v-1.059c-0.545,1.272-1.471,2.329-2.781,3.172c-1.307,0.844-2.883,1.266-4.721,1.266
	c-2.021,0-3.641-0.449-4.861-1.344c-1.215-0.896-1.824-2.328-1.824-4.302c0-2.127,0.717-3.645,2.15-4.555
	c1.436-0.907,3.16-1.362,5.174-1.362c3.129,0,5.054-0.258,5.777-0.775c0.723-0.517,1.086-1.641,1.086-3.373
	c0-0.775-0.424-1.621-1.273-2.539c-0.85-0.916-2.266-1.375-4.248-1.375c-1.829,0-3.305,0.463-4.426,1.393
	c-1.117,0.929-1.678,2.232-1.678,3.91h-1.5c0-2.154,0.668-3.795,2.004-4.924c1.332-1.129,3.207-1.692,5.621-1.692
	c2.047,0,3.727,0.389,5.035,1.167c1.309,0.779,1.965,2.127,1.965,4.047v11.56c0,0.805,0.072,1.408,0.215,1.81
	c0.146,0.403,0.521,0.604,1.125,0.604l1.107-0.188V37.758z M310.1,36.879c0,1.351-0.338,3.137-1.016,5.358
	c-0.674,2.221-3.223,3.333-7.643,3.333c-2.367,0-4.268-0.489-5.695-1.465c-1.432-0.976-2.146-2.573-2.146-4.785l1.5,0.028
	c0.154,1.649,0.822,2.879,2.005,3.692c1.179,0.81,2.638,1.218,4.376,1.218c2.98,0,4.914-0.772,5.797-2.314
	c0.881-1.543,1.322-3.118,1.322-4.723v-4.588c-1.535,3.084-3.98,4.625-7.336,4.625c-2.811,0-4.957-0.926-6.439-2.775
	c-1.484-1.85-2.225-4.234-2.225-7.152c0-2.786,0.762-5.132,2.281-7.034c1.523-1.901,3.65-2.852,6.383-2.852
	c1.639,0,3.129,0.407,4.469,1.225c1.34,0.816,2.268,1.95,2.788,3.401l0.079-4.172h1.5V36.879z M330.356,37.945h-1.5v-12.65
	c0-1.738-0.354-3.262-1.051-4.572c-0.702-1.311-2.244-1.965-4.631-1.965c-2.203,0-3.953,0.765-5.252,2.297
	c-1.297,1.531-1.941,3.554-1.941,6.07v10.82h-1.5V17.883h1.5v4.312c0.545-1.48,1.479-2.64,2.805-3.484
	c1.324-0.845,2.803-1.266,4.441-1.266c3.037,0,4.982,0.819,5.842,2.456c0.855,1.636,1.287,3.521,1.287,5.65V37.945z M349.741,35.385
	c-1.654,1.998-3.9,2.998-6.738,2.998c-2.865,0-5.117-0.994-6.758-2.978c-1.64-1.983-2.461-4.481-2.461-7.492
	c0-2.983,0.826-5.473,2.48-7.471c1.652-1.998,3.9-2.997,6.738-2.997c2.863,0,5.117,0.993,6.758,2.977s2.461,4.482,2.461,7.491
	C352.221,30.898,351.393,33.387,349.741,35.385 M301.292,18.758c-2.268,0-4.031,0.851-5.295,2.551
	c-1.264,1.703-1.896,3.709-1.896,6.022c0,2.494,0.625,4.554,1.877,6.177c1.25,1.625,3.021,2.437,5.314,2.437
	c2.318,0,4.117-0.832,5.395-2.495c1.273-1.662,1.914-3.702,1.914-6.119c0-2.416-0.631-4.448-1.895-6.099
	C305.442,19.583,303.637,18.758,301.292,18.758"/>
<polygon fill="#56C0D9" points="9,48.666 9,0 0,0 0,58.667 2.333,58.667 2.333,68.666 368.667,68.666 368.667,48.666 "/>
<rect x="257.332" y="1" fill="#56C0D9" width="115.334" height="8.667"/>
</svg>
